<svg xmlns="http://www.w3.org/2000/svg" viewBox="0 0 64 64">
  <rect width="64" height="64" rx="15" fill="#DDF3EA"/>
  <g fill="none" stroke="#3C8E72" stroke-width="2.4" stroke-linecap="round" stroke-linejoin="round">
    <path d="M25 15c-5 0-9 3-10 8-4 1-7 5-7 10 0 4 2 7 5 9-1 3 0 7 4 9 2 1 4 1 6 0 2 3 6 4 11 4 5 0 9-2 11-6 4 0 8-3 9-7 3-1 5-4 5-8 0-3-1-5-3-7 1-4-1-8-5-10-1-5-5-9-10-9-2 0-4 0-6 1z" fill="#6FCBA6"/>
    <path d="M32 15v33" stroke="#EDE7D5" stroke-width="2.2"/>
    <path d="M22 24c3 1 4 4 2 6M42 24c-3 1-4 4-2 6" stroke="#EDE7D5" stroke-width="2"/>
  </g>
  <path d="M32 47c-2-3-6-2-6 1 0 2 3 4 6 6 3-2 6-4 6-6 0-3-4-4-6-1z" fill="#FFC4D1" stroke="#3C8E72" stroke-width="1.6" stroke-linejoin="round"/>
</svg>
